<?xml version="1.0" encoding="UTF-8" standalone="no"?>
<!-- Created with Inkscape (http://www.inkscape.org/) -->

<svg
   width="49.132046mm"
   height="46.669815mm"
   viewBox="0 0 49.132046 46.669815"
   version="1.1"
   id="svg5"
   xml:space="preserve"
   xmlns:inkscape="http://www.inkscape.org/namespaces/inkscape"
   xmlns:sodipodi="http://sodipodi.sourceforge.net/DTD/sodipodi-0.dtd"
   xmlns="http://www.w3.org/2000/svg"
   xmlns:svg="http://www.w3.org/2000/svg"><sodipodi:namedview
     id="namedview7"
     pagecolor="#ffffff"
     bordercolor="#000000"
     borderopacity="0.25"
     inkscape:showpageshadow="2"
     inkscape:pageopacity="0.0"
     inkscape:pagecheckerboard="0"
     inkscape:deskcolor="#d1d1d1"
     inkscape:document-units="mm"
     showgrid="false" /><defs
     id="defs2" /><g
     inkscape:label="Capa 1"
     inkscape:groupmode="layer"
     id="layer1"
     transform="translate(-40.082158,-162.92254)"><path
       style="fill:#d99da3;stroke-width:0.0580063"
       d="m 55.875739,209.4064 c -0.09445,-0.1441 -0.104287,-0.3987 -0.120478,-3.11785 -0.01135,-1.90567 0.0036,-3.03329 0.04187,-3.16395 0.0888,-0.30302 0.394458,-0.63575 0.725737,-0.79 l 0.294142,-0.13697 2.916682,-5.8e-4 c 2.34443,-4.6e-4 2.95413,0.0151 3.107557,0.0792 0.272308,0.11377 0.603439,0.42129 0.751417,0.69784 0.124861,0.23333 0.127408,0.28573 0.144725,2.97731 0.018,2.79723 -0.01144,3.31582 -0.198355,3.49422 -0.07396,0.0706 -0.07092,0.0473 0.0149,-0.11435 0.101022,-0.19022 0.107817,-0.38947 0.107817,-3.16134 0,-2.91774 -0.0017,-2.96151 -0.124869,-3.19035 -0.160445,-0.29813 -0.333496,-0.45698 -0.658216,-0.60419 -0.251463,-0.11401 -0.367429,-0.11839 -3.164458,-0.11962 l -2.903428,-0.001 -0.296699,0.14785 c -0.318633,0.15878 -0.536191,0.4006 -0.644539,0.7164 -0.04801,0.13993 -0.06765,1.04166 -0.06765,3.10558 0,2.73864 0.0064,2.92096 0.10976,3.12368 0.128665,0.25237 0.110546,0.28183 -0.03592,0.0584 z m 11.71376,-0.43352 c -0.0094,-0.47354 -0.03379,-0.64089 -0.103472,-0.71058 -0.13773,-0.13773 -1.657204,-0.13393 -1.772449,0.004 -0.04892,0.0587 -0.0924,0.31031 -0.112778,0.65257 l -0.03317,0.55699 -0.01034,-0.52873 c -0.0089,-0.45658 0.0061,-0.5496 0.109886,-0.68158 0.119845,-0.15236 0.122819,-0.15284 0.948114,-0.15284 1.060336,0 1.031129,-0.0246 1.005248,0.84792 l -0.01873,0.63124 z M 50.38072,206.21641 c -0.210361,-0.0567 -0.394779,-0.214 -0.474382,-0.40451 -0.05959,-0.14263 -0.07904,-0.54377 -0.07888,-1.62682 3.15e-4,-2.08443 -0.09753,-1.98858 2.030005,-1.98858 1.611903,0 1.704557,0.0177 1.916557,0.36535 0.10441,0.17124 0.113248,0.30004 0.113448,1.65325 2.32e-4,1.59816 -0.0156,1.68938 -0.330355,1.90271 -0.147815,0.10019 -0.293383,0.11099 -1.612641,0.11968 -0.797587,0.005 -1.501275,-0.004 -1.563753,-0.0211 z m 3.001273,-0.0965 c 0.102662,-0.0434 0.238863,-0.1375 0.30267,-0.209 0.108632,-0.12173 0.117109,-0.22542 0.133248,-1.62978 0.02476,-2.15461 0.149192,-2.02674 -1.972068,-2.02643 -2.091251,2.9e-4 -1.978446,-0.12098 -1.949958,2.09654 0.02497,1.94384 -0.0826,1.84199 1.948941,1.8454 1.01383,0.002 1.397043,-0.0174 1.537167,-0.0767 z m 14.116906,0.0773 c -0.707347,-0.12142 -1.363333,-0.62918 -1.704493,-1.31936 l -0.218445,-0.44192 -0.01731,-4.87561 c -0.01211,-3.41069 0.0022,-4.98881 0.04768,-5.25236 0.131811,-0.76413 0.635531,-1.40711 1.377835,-1.75876 l 0.389995,-0.18475 h 5.133561 5.13356 l 0.392925,0.18612 c 0.728841,0.34524 1.245799,1.00788 1.375833,1.76355 0.04387,0.25495 0.05841,1.88193 0.0466,5.21411 l -0.01717,4.84353 -0.132566,0.32789 c -0.253591,0.62721 -0.768948,1.13646 -1.42089,1.40405 -0.300621,0.12339 -0.337153,0.12433 -5.204281,0.13303 -2.695845,0.005 -5.028121,-0.013 -5.182838,-0.0395 z m 9.957838,-0.0542 c 0.185633,-0.0304 0.482127,-0.12813 0.658874,-0.21718 0.430518,-0.21691 0.953688,-0.78033 1.12972,-1.21664 l 0.136137,-0.33743 v -5.07555 -5.07556 l -0.133812,-0.33121 c -0.238489,-0.5903 -0.744671,-1.08951 -1.361412,-1.34263 -0.300385,-0.12329 -0.344806,-0.12449 -5.202134,-0.14045 -3.252188,-0.0107 -4.997461,0.004 -5.191567,0.0447 -0.459535,0.0955 -0.855702,0.30821 -1.18224,0.63475 -0.357975,0.35798 -0.556001,0.72537 -0.642143,1.19136 -0.08351,0.45174 -0.08783,9.57183 -0.0047,10.00994 0.174014,0.91758 0.952744,1.70291 1.835451,1.85102 0.403541,0.0677 9.546886,0.0722 9.957871,0.005 z m -36.559902,-1.94978 c -0.337582,-0.14645 -0.57692,-0.36571 -0.742994,-0.68069 l -0.158672,-0.30093 v -2.92932 -2.92932 l 0.145016,-0.28961 c 0.165639,-0.33079 0.529548,-0.6338 0.871876,-0.72598 0.151288,-0.0407 1.209432,-0.056 3.120031,-0.0451 l 2.891103,0.0166 0.283608,0.17539 c 0.155984,0.0965 0.362723,0.28794 0.459421,0.42549 l 0.175813,0.2501 0.01642,2.99689 c 0.01445,2.63713 0.0052,3.02628 -0.07669,3.24179 -0.124578,0.32769 -0.582051,0.73559 -0.920598,0.82084 -0.175466,0.0442 -1.168038,0.0646 -3.061758,0.0631 -2.358618,-0.002 -2.833849,-0.016 -3.002577,-0.0892 z m 6.291119,-0.12072 c 0.296107,-0.15978 0.52072,-0.39696 0.634993,-0.67052 0.07745,-0.18541 0.08991,-0.62471 0.08881,-3.13234 -0.0012,-2.708 -0.0089,-2.93352 -0.108134,-3.15195 -0.131563,-0.28965 -0.510262,-0.62258 -0.810482,-0.71252 -0.15697,-0.047 -1.063123,-0.0673 -3.006436,-0.0673 -3.104249,0 -3.130474,0.003 -3.529374,0.3903 -0.384785,0.3737 -0.375155,0.28321 -0.375155,3.52512 0,3.23248 -0.0066,3.16775 0.365479,3.55998 0.403984,0.4258 0.304977,0.41477 3.578951,0.39877 2.876912,-0.0141 2.933471,-0.0166 3.161345,-0.13952 z m 4.503133,-3.7941 c -0.573606,-0.11415 -1.242438,-0.60606 -1.559384,-1.14688 -0.301379,-0.51427 -0.302632,-0.53805 -0.302866,-5.752 -2.32e-4,-5.16586 -0.0028,-5.1155 0.285937,-5.68025 0.186717,-0.36524 0.699086,-0.85456 1.075043,-1.02668 0.176319,-0.0807 0.483504,-0.17033 0.682633,-0.19913 0.513444,-0.0743 9.37314,-0.069 9.84609,0.006 1.032548,0.16341 1.821581,0.97798 1.974995,2.03893 0.07419,0.51307 0.06986,9.31595 -0.0048,9.79182 -0.127723,0.81389 -0.614751,1.45208 -1.390114,1.82155 l -0.377041,0.17967 -4.988544,0.009 c -2.7437,0.005 -5.102569,-0.0139 -5.241932,-0.0416 z m 10.625011,-0.21813 c 0.74071,-0.3647 1.201441,-0.98837 1.314375,-1.77921 0.07168,-0.50192 0.07748,-9.17625 0.0065,-9.72646 -0.137753,-1.06792 -0.915357,-1.85851 -1.992966,-2.02625 -0.217749,-0.0339 -2.244222,-0.0491 -5.117044,-0.0383 -5.269719,0.0197 -5.01033,0.001 -5.610371,0.40429 -0.353563,0.23762 -0.755213,0.7587 -0.895908,1.16231 -0.100116,0.28719 -0.106443,0.60705 -0.106443,5.3809 v 5.07555 l 0.134609,0.33335 c 0.253931,0.62882 0.990515,1.24342 1.648046,1.37511 0.136161,0.0273 2.492985,0.0456 5.237385,0.0407 l 4.989819,-0.009 z m 19.820671,-3.75676 c -0.262639,-0.11358 -0.557507,-0.39819 -0.715661,-0.69074 -0.123898,-0.22919 -0.125431,-0.26819 -0.125431,-3.19035 0,-3.32982 -0.01881,-3.17822 0.45093,-3.63409 0.383943,-0.3726 0.342605,-0.36835 3.58051,-0.36835 2.892434,0 2.932241,0.002 3.161345,0.12543 0.127614,0.069 0.315536,0.21256 0.417606,0.31904 0.371413,0.38747 0.365479,0.33055 0.365479,3.50587 0,2.0186 -0.02015,2.94821 -0.06732,3.10564 -0.09037,0.30162 -0.382561,0.63126 -0.70014,0.78986 -0.259667,0.12969 -0.268189,0.13003 -3.212327,0.12776 -2.504178,-0.002 -2.982766,-0.0156 -3.154991,-0.0901 z m 6.310499,-0.0757 c 0.30798,-0.15749 0.522956,-0.37463 0.651714,-0.6583 0.105861,-0.23322 0.112081,-0.4069 0.113285,-3.16345 0.001,-2.31824 -0.01478,-2.95498 -0.07694,-3.10334 -0.121957,-0.29103 -0.36336,-0.54225 -0.662716,-0.68969 l -0.274176,-0.13503 h -2.92932 c -2.746892,0 -2.941963,0.007 -3.132341,0.10813 -0.284154,0.15135 -0.511383,0.37445 -0.657884,0.64595 -0.123595,0.22905 -0.125202,0.26999 -0.125202,3.19035 0,2.9395 8.12e-4,2.95984 0.127971,3.19755 0.14121,0.26398 0.416433,0.52037 0.684118,0.63731 0.135753,0.0593 0.821857,0.0765 3.120151,0.0783 2.781133,0.002 2.958185,-0.004 3.161345,-0.10778 z m -44.177623,-1.92167 c -0.330121,-0.20127 -0.359197,-0.35539 -0.357774,-1.89636 0.002,-2.11782 -0.06853,-2.04659 2.025075,-2.04659 1.523742,0 1.676965,0.0257 1.908342,0.31983 0.121789,0.15483 0.125752,0.20815 0.125752,1.6921 0,1.68442 -0.01887,1.79129 -0.34614,1.96053 -0.139229,0.072 -0.442157,0.088 -1.6667,0.0878 -1.39872,-1.7e-4 -1.509094,-0.008 -1.688555,-0.11728 z m 3.446167,-0.13773 0.197222,-0.19722 v -1.51685 c 0,-1.26344 -0.01518,-1.5462 -0.09086,-1.69255 -0.159568,-0.30857 -0.334985,-0.3406 -1.864988,-0.3405 -2.07596,1.2e-4 -2.000044,-0.079 -1.975931,2.05913 0.0143,1.26821 0.02903,1.46807 0.117365,1.59287 0.196288,0.27731 0.266576,0.2881 1.891507,0.29028 l 1.528466,0.002 z m 19.023423,-3.73056 c -0.197013,-0.0515 -0.518456,-0.28205 -0.748688,-0.53689 -0.437962,-0.48477 -0.414586,-0.23773 -0.414586,-4.3813 v -3.7124 l 0.155012,-0.29371 c 0.164712,-0.3121 0.497077,-0.64712 0.813129,-0.81963 0.1796,-0.098 0.437104,-0.10479 3.9914,-0.10479 3.78597,0 3.800236,4.6e-4 4.03144,0.12559 0.297609,0.1611 0.620489,0.49982 0.792631,0.83151 l 0.135471,0.26103 0.01696,3.56739 c 0.01156,2.43197 -0.0032,3.65047 -0.04626,3.82842 -0.089,0.36749 -0.407996,0.80582 -0.75985,1.04411 l -0.299776,0.20302 -3.777011,0.009 c -2.077356,0.005 -3.827801,-0.005 -3.889877,-0.0209 z m 7.769701,-0.15513 c 0.338182,-0.16015 0.602211,-0.42321 0.792524,-0.78962 l 0.135577,-0.26103 v -3.71241 -3.7124 l -0.127741,-0.23878 c -0.18949,-0.35421 -0.403347,-0.58566 -0.704963,-0.76297 l -0.269416,-0.15838 -3.654399,-0.017 c -2.720077,-0.0127 -3.719142,8.3e-4 -3.907628,0.0529 -0.382259,0.10563 -0.77976,0.45082 -0.973524,0.84543 l -0.165399,0.33683 v 3.6544 c 0,3.59328 0.002,3.65882 0.122142,3.91838 0.17374,0.37549 0.445455,0.66209 0.79093,0.83424 l 0.298837,0.14892 3.686514,-5.8e-4 3.686514,-5.8e-4 z m 2.967313,0.0904 c -0.07972,-0.0881 -0.096,-0.24398 -0.096,-0.91911 0,-1.05351 -0.02404,-1.02654 0.938996,-1.05351 0.766542,-0.0215 0.9794,0.0292 1.083701,0.25815 0.03689,0.081 0.06553,0.4434 0.06553,0.82934 0,0.6057 -0.014,0.70333 -0.120222,0.83837 -0.119846,0.15236 -0.12282,0.15284 -0.948114,0.15284 -0.728381,0 -0.839431,-0.0128 -0.923891,-0.10608 z m 1.818209,-0.0679 c 0.103528,-0.10353 0.116013,-0.19336 0.116013,-0.83467 0,-1.0102 0.01782,-0.99253 -1.00107,-0.99253 -0.575251,0 -0.804412,0.0208 -0.875221,0.0796 -0.138685,0.1151 -0.142775,1.63444 -0.0048,1.77245 0.07382,0.0738 0.239308,0.0911 0.870095,0.0911 0.701601,0 0.790461,-0.0115 0.894955,-0.11601 z m -33.176657,-1.82054 c -0.202758,-0.11576 -0.226347,-0.21542 -0.230912,-0.97554 -0.0064,-1.05754 0.0508,-1.11147 1.145155,-1.08082 0.964185,0.027 0.938996,-0.002 0.938996,1.06359 0,1.07198 0.03087,1.03854 -0.977509,1.05899 -0.544484,0.011 -0.770309,-0.006 -0.87573,-0.0662 z m 1.71302,-0.11926 c 0.117295,-0.16065 0.117196,-1.58658 -1.16e-4,-1.74702 -0.07455,-0.10195 -0.157302,-0.1126 -0.875225,-0.1126 -1.03112,0 -1.014662,-0.0157 -1.014662,0.96735 0,0.3814 0.02781,0.74542 0.0618,0.80893 0.100322,0.18745 0.275609,0.22302 1.030618,0.20911 0.632388,-0.0116 0.724911,-0.0262 0.797587,-0.12577 z m 42.600853,-2.00024 c -60.287783,-124.24346 -30.143891,-62.12173 0,0 z M 78.14127,186.526 c -0.295523,-0.085 -0.460754,-0.21405 -0.618382,-0.48302 l -0.142639,-0.2434 v -2.24553 c 0,-1.82017 0.0155,-2.2752 0.08183,-2.40216 0.109873,-0.21032 0.374474,-0.45441 0.574517,-0.52999 0.104922,-0.0396 0.950904,-0.0617 2.366638,-0.0617 2.389918,0 2.361963,-0.003 2.669049,0.32836 0.31394,0.3392 0.310355,0.31229 0.329565,2.47368 0.02083,2.34373 -0.0028,2.54845 -0.332965,2.87857 -0.141192,0.14119 -0.311383,0.24124 -0.484547,0.28484 -0.330798,0.0833 -4.153613,0.0836 -4.443067,3.5e-4 z m 4.414243,-0.0517 c 0.26052,-0.0724 0.536034,-0.29447 0.670958,-0.54092 0.08897,-0.16251 0.09943,-0.41348 0.09943,-2.38585 0,-1.97238 -0.01046,-2.22335 -0.09943,-2.38585 -0.135958,-0.24834 -0.417053,-0.47389 -0.641861,-0.51504 -0.102747,-0.0188 -1.167738,-0.0264 -2.366646,-0.0168 l -2.179833,0.0174 -0.219083,0.16717 c -0.378833,0.28905 -0.380792,0.30327 -0.380792,2.76317 0,2.37516 -6.67e-4,2.36939 0.308023,2.65772 0.295909,0.27638 0.452798,0.29434 2.592293,0.29672 1.205952,0.001 2.086945,-0.0216 2.216941,-0.0577 z m 3.120798,0.017 c -0.111026,-0.0558 -0.261117,-0.19012 -0.333537,-0.29852 -0.127901,-0.19146 -0.13167,-0.23759 -0.13167,-1.61154 0,-1.57862 0.02805,-1.72948 0.359049,-1.93128 0.179703,-0.10956 0.28975,-0.11708 1.716718,-0.11729 1.318892,-1.7e-4 1.544407,0.0127 1.670647,0.0954 0.296163,0.19405 0.314029,0.30247 0.314029,1.9056 0,1.6943 -0.0144,1.76035 -0.424393,1.94649 -0.21607,0.0981 -0.392149,0.11031 -1.605828,0.11137 -1.183682,0.001 -1.389726,-0.0122 -1.565015,-0.10024 z m 3.094306,-0.0364 c 0.105281,-0.044 0.248008,-0.15192 0.317172,-0.23984 0.121803,-0.15485 0.125752,-0.20807 0.125752,-1.69502 v -1.53514 l -0.197222,-0.19722 -0.197221,-0.19723 -1.528467,2.4e-4 c -1.412672,1.7e-4 -1.54251,0.009 -1.713828,0.11323 -0.28814,0.17569 -0.317867,0.37143 -0.297083,1.95617 0.02566,1.95639 -0.06938,1.86646 1.97797,1.87154 0.997944,0.002 1.368376,-0.0163 1.512927,-0.0767 z m -46.402355,-1.9192 c -1.038648,-0.22923 -1.916809,-1.04607 -2.244582,-2.08785 l -0.128511,-0.40846 v -6.35169 -6.35169 l 0.128769,-0.40644 c 0.35703,-1.12691 1.347133,-1.97265 2.481516,-2.1197 0.302553,-0.0392 2.603898,-0.0542 6.612722,-0.0431 l 6.148671,0.017 0.381228,0.12966 c 1.058658,0.36005 1.848864,1.29147 2.030726,2.39361 0.02919,0.17691 0.05234,3.03229 0.05197,6.4097 -7.37e-4,6.68189 0.007,6.52106 -0.349216,7.22679 -0.34702,0.68744 -0.954621,1.20642 -1.778696,1.51926 l -0.336014,0.12756 -6.32269,0.0117 c -5.113401,0.009 -6.390245,-0.003 -6.675895,-0.0663 z m 13.321804,-0.13216 c 0.764597,-0.25911 1.398548,-0.7988 1.746697,-1.48697 0.34128,-0.6746 0.335332,-0.54639 0.335332,-7.22887 0,-6.66063 0.0043,-6.566 -0.32632,-7.24978 -0.202765,-0.4194 -0.872488,-1.08152 -1.306154,-1.29131 -0.704886,-0.34101 -0.517276,-0.33225 -7.095464,-0.33123 -3.470179,5.4e-4 -6.217453,0.0244 -6.467706,0.0562 -1.078205,0.13689 -2.036634,0.96602 -2.372089,2.0521 -0.121154,0.39225 -0.122173,0.44967 -0.12096,6.81367 l 0.0012,6.4181 0.133472,0.37704 c 0.349805,0.98815 1.158421,1.72233 2.135818,1.93922 0.305007,0.0677 1.438506,0.0798 6.661238,0.0713 l 6.293687,-0.0103 z m 4.481614,0.15532 c -0.101041,-0.0303 -0.251132,-0.13515 -0.333536,-0.23308 l -0.149825,-0.17806 v -1.53559 c 0,-1.68811 0.01877,-1.79462 0.346139,-1.96391 0.139093,-0.0719 0.441236,-0.088 1.655079,-0.088 1.616968,0 1.706492,0.0154 1.920097,0.33057 0.101184,0.14929 0.110125,0.28514 0.110125,1.6732 0,2.13456 0.10636,2.02281 -1.940484,2.03878 -0.783136,0.006 -1.506554,-0.0136 -1.607595,-0.0439 z m 3.126719,-0.10728 c 0.335919,-0.17105 0.35991,-0.27072 0.383062,-1.59144 0.02739,-1.56242 -0.0018,-1.80058 -0.251532,-2.05028 l -0.191623,-0.19162 h -1.548769 -1.548769 l -0.197222,0.19722 -0.197221,0.19722 v 1.51685 c 0,1.2462 0.01579,1.54738 0.0885,1.68798 0.04867,0.0941 0.09435,0.17153 0.101511,0.17201 0.0072,4.7e-4 0.117423,0.0394 0.245037,0.0864 0.320601,0.11818 2.87633,0.0982 3.117027,-0.0243 z m 22.055084,-3.91771 c -0.136463,-0.13647 -0.142379,-0.1735 -0.142379,-0.89128 0,-0.66981 0.0127,-0.76504 0.120223,-0.90174 0.119597,-0.15204 0.124427,-0.15283 0.928101,-0.15283 0.730537,0 0.818985,0.0111 0.923891,0.11601 0.104906,0.10491 0.116013,0.19335 0.116013,0.92389 0,0.80367 -7.95e-4,0.8085 -0.152839,0.9281 -0.136697,0.10753 -0.231929,0.12022 -0.901734,0.12022 -0.717783,0 -0.754812,-0.006 -0.891276,-0.14237 z m 1.758923,-0.006 c 0.122487,-0.0858 0.12892,-0.1297 0.12892,-0.88003 0,-1.049 0.04664,-1.00189 -0.991809,-1.00189 -1.012634,0 -0.980407,-0.0316 -0.980407,0.96219 0,0.62474 0.01359,0.72163 0.120223,0.85719 0.118608,0.15079 0.130123,0.15284 0.857188,0.15284 0.573131,0 0.765626,-0.0201 0.865885,-0.0903 z m -26.517593,-1.90802 c -0.316433,-0.11428 -0.618387,-0.37543 -0.773716,-0.66916 l -0.132778,-0.25109 v -2.98006 c 0,-2.39722 0.0156,-3.0174 0.07975,-3.17094 0.126745,-0.30335 0.417555,-0.59256 0.73174,-0.72772 0.286254,-0.12314 0.331176,-0.12465 3.238889,-0.10883 l 2.948609,0.016 0.283884,0.17555 c 0.175838,0.10874 0.350699,0.2836 0.459436,0.45944 l 0.175553,0.28388 0.01604,2.9882 0.01604,2.98821 -0.152447,0.31159 c -0.116303,0.23771 -0.228918,0.36237 -0.474992,0.52579 l -0.322547,0.21421 -2.93442,0.013 c -2.392822,0.0106 -2.975879,-0.002 -3.159049,-0.0681 z m 6.062477,-0.0412 c 0.30022,-0.09 0.678919,-0.42287 0.810482,-0.71253 0.09929,-0.2186 0.10686,-0.44271 0.10686,-3.16458 0,-2.71019 -0.0079,-2.94668 -0.105673,-3.16134 -0.135889,-0.29838 -0.518131,-0.64228 -0.801273,-0.7209 -0.1426,-0.0396 -1.23515,-0.0612 -3.06394,-0.0606 -2.632911,8.8e-4 -2.859404,0.009 -3.074336,0.10739 -0.281453,0.12911 -0.52512,0.36684 -0.672904,0.65652 -0.10398,0.20382 -0.110181,0.38272 -0.110181,3.17892 0,2.84109 0.0047,2.97223 0.115152,3.18866 0.135034,0.26469 0.486583,0.57636 0.762894,0.67635 0.27138,0.0982 5.709113,0.10912 6.032919,0.0121 z m 2.976478,-0.017 c -0.136955,-0.13696 -0.14238,-0.17189 -0.14238,-0.91716 0,-1.05858 -0.0304,-1.02869 1.046374,-1.02869 1.08182,0 1.041854,-0.0399 1.041854,1.0399 0,0.80368 -7.94e-4,0.80851 -0.152838,0.92811 -0.136697,0.10752 -0.23193,0.12022 -0.901735,0.12022 -0.717783,0 -0.754812,-0.006 -0.891275,-0.14238 z m 1.771829,-0.0316 c 0.104269,-0.10427 0.116013,-0.19335 0.116013,-0.88003 0,-1.01943 0.04395,-0.97617 -0.991808,-0.97617 -1.016776,0 -0.980407,-0.0371 -0.980407,0.99901 0,0.99623 -0.02333,0.9732 0.986107,0.9732 0.676741,0 0.765982,-0.0119 0.870095,-0.11601 z m -1.506423,-3.84462 c -0.0788,-0.0399 -0.20279,-0.16081 -0.27553,-0.26875 -0.129131,-0.19162 -0.13225,-0.23134 -0.132039,-1.68134 3.12e-4,-2.13979 -0.103022,-2.03615 2.030005,-2.03615 1.611903,0 1.704557,0.0177 1.916557,0.36536 0.104503,0.17139 0.113248,0.30018 0.113448,1.67079 2.32e-4,1.45 -0.0029,1.48972 -0.132039,1.68134 -0.223638,0.33186 -0.275878,0.34125 -1.897966,0.34125 -1.068125,0 -1.518975,-0.0202 -1.622436,-0.0725 z m 3.248512,-0.0718 c 0.325038,-0.16808 0.346139,-0.28295 0.346139,-1.88422 0,-1.62937 -0.02234,-1.74074 -0.37903,-1.88978 -0.307769,-0.12859 -2.920891,-0.11846 -3.196649,0.0124 -0.351333,0.16672 -0.368751,0.2554 -0.368751,1.87739 0,1.5906 0.02152,1.71171 0.334265,1.88141 0.236351,0.12824 3.016838,0.13064 3.264026,0.003 z m 2.376361,-1.94223 c -0.104964,-0.10496 -0.116013,-0.19335 -0.116013,-0.9281 0,-1.08181 -0.03674,-1.04412 1.017747,-1.04412 0.756882,0 0.790949,0.005 0.928102,0.14238 0.136464,0.13647 0.142379,0.1735 0.142379,0.89128 0,0.6698 -0.0127,0.76504 -0.120223,0.90173 -0.119597,0.15205 -0.124427,0.15284 -0.928101,0.15284 -0.730537,0 -0.818985,-0.0111 -0.923891,-0.11601 z m 1.802609,-0.0624 c 0.112111,-0.11211 0.119119,-0.17451 0.101511,-0.9039 -0.02385,-0.98781 0.01718,-0.94789 -0.974199,-0.94789 -1.022133,0 -0.987927,-0.0336 -0.987927,0.97033 0,1.0462 -0.04273,1.00189 0.966094,1.00189 0.706208,0 0.784657,-0.0106 0.894521,-0.12043 z m -17.058274,-3.76786 c -0.173407,-0.0353 -0.314575,-0.11236 -0.420546,-0.22957 l -0.159517,-0.17644 v -1.58644 c 0,-2.17874 -0.109716,-2.06618 2.013856,-2.06604 1.517306,1e-4 1.646892,0.0251 1.897448,0.3667 0.114291,0.15581 0.120136,0.23776 0.120136,1.68474 0,2.13592 0.09326,2.03283 -1.853623,2.04905 -0.735199,0.006 -1.454188,-0.0128 -1.597754,-0.042 z m 3.069046,-0.14042 c 0.295024,-0.15256 0.324324,-0.32598 0.324324,-1.91954 0,-2.04135 0.10237,-1.94062 -1.972215,-1.94062 -1.48305,0 -1.661414,0.0299 -1.844346,0.30908 -0.08696,0.13272 -0.09862,0.3345 -0.09681,1.6756 0.0022,1.62836 0.01738,1.72529 0.29436,1.87881 0.21055,0.1167 3.068163,0.11381 3.294687,-0.003 z m 2.702584,0.17532 c -0.0319,-0.0126 -0.126485,-0.0379 -0.210181,-0.0562 -0.240425,-0.0527 -0.295188,-0.2733 -0.273215,-1.10073 0.02555,-0.96208 -0.0083,-0.92958 0.994135,-0.95405 0.712995,-0.0174 0.77928,-0.01 0.926195,0.10572 l 0.15824,0.12447 v 0.82789 c 0,1.06078 0.02176,1.0348 -0.886649,1.05871 -0.357785,0.009 -0.676622,0.007 -0.708525,-0.006 z m 1.446015,-0.1822 c 0.0741,-0.0741 0.09115,-0.24164 0.09115,-0.89581 0,-1.01943 0.03374,-0.98525 -0.972648,-0.98525 -0.98741,0 -0.999568,0.0122 -0.999568,0.99957 0,1.00639 -0.03418,0.97265 0.985254,0.97265 0.654164,0 0.821704,-0.017 0.895809,-0.0912 z m 3.020472,0.17056 c -0.340481,-0.0474 -0.428379,-0.0813 -0.61285,-0.23651 -0.392021,-0.32986 -0.399713,-0.3832 -0.399713,-2.77221 0,-1.96415 0.0091,-2.16592 0.107087,-2.37826 0.123889,-0.26844 0.314504,-0.45922 0.546713,-0.5472 0.105367,-0.0399 0.955201,-0.0619 2.395642,-0.0619 2.391319,0 2.39368,2.7e-4 2.673367,0.29981 0.296619,0.31769 0.307302,0.41111 0.307302,2.68752 0,2.2764 -0.01068,2.36982 -0.307302,2.68751 -0.304613,0.32624 -0.310186,0.32699 -2.506005,0.33657 -1.116622,0.005 -2.10853,-0.002 -2.204241,-0.0154 z m 4.545755,-0.24769 c 0.39998,-0.28527 0.411087,-0.35967 0.412513,-2.76325 0.0013,-2.11405 -8.12e-4,-2.15258 -0.129241,-2.40679 -0.07178,-0.14209 -0.22045,-0.31813 -0.330371,-0.39119 l -0.199857,-0.13284 -2.328005,0.0164 -2.328005,0.0164 -0.207758,0.15852 c -0.387225,0.29545 -0.39861,0.38037 -0.379825,2.83314 l 0.01669,2.17957 0.153673,0.23212 c 0.286212,0.43231 0.253117,0.42751 2.833653,0.4115 l 2.29125,-0.0142 z"
       id="path314"
       sodipodi:nodetypes="cscscsssssssssccssssccsscscsssscsssssssscssssssscsssscscscccssscsscsscsscccssscsscscccscccsscccscscscccsssssscscssscssssccsssccccsssscssscssccsssssscsssscssssssscscsssscssscsssscssccsssssccccsscssssscscsccccsscccssccsscscscccssssssssscsscssccscsscssssssscssccscsssscssssssssssccssscsssssssssssssscscccccscsscscccssscsssssccccsssssscsscssccssscssssscssscscccccssscsscssssssscscssssscscsssccsscccsscsccscsssscsscssscssssscscssssccssssssccsssssccssscsssssssssssccsssscsccssssccccssccscccccsssccccssssssscccccsscccsscssccc" /><path
       style="fill:#cc7a83;stroke-width:0.0580063"
       d="m 65.615588,209.01065 c -0.01558,-0.85315 -0.03143,-0.8395 0.97463,-0.8395 1.015796,0 0.991272,-0.0187 0.974923,0.74372 l -0.01204,0.56142 -0.01929,-0.54792 c -0.01061,-0.30136 -0.04754,-0.58196 -0.08207,-0.62357 -0.0752,-0.0906 -1.532824,-0.10721 -1.672754,-0.019 -0.06485,0.0409 -0.09538,0.2142 -0.11989,0.68069 l -0.03288,0.62586 z m -9.750012,0.25396 c -0.0918,-0.26332 -0.08817,-5.8773 0.004,-6.14586 0.108348,-0.3158 0.325906,-0.55762 0.644539,-0.7164 l 0.296699,-0.14785 2.903428,0.001 c 2.797029,10e-4 2.912995,0.006 3.164458,0.11961 0.32472,0.14722 0.497771,0.30606 0.658216,0.60419 0.123156,0.22885 0.124869,0.27262 0.124869,3.19035 0,2.73689 -0.0078,2.97135 -0.10363,3.13234 -0.08898,0.14943 -0.09718,0.15353 -0.05801,0.029 0.02509,-0.0798 0.04562,-1.51766 0.04562,-3.19533 v -3.05002 l -0.166076,-0.23963 c -0.103762,-0.14972 -0.276711,-0.29476 -0.460938,-0.38656 l -0.294863,-0.14694 h -2.89079 c -3.152433,0 -3.127395,-0.002 -3.488944,0.33661 -0.09176,0.086 -0.215173,0.26085 -0.274256,0.38847 -0.09996,0.2159 -0.107513,0.43274 -0.108698,3.1197 -0.0011,2.39253 0.01314,2.92217 0.08277,3.08884 0.04623,0.11064 0.06183,0.20116 0.03468,0.20116 -0.02715,0 -0.07803,-0.0822 -0.113052,-0.18268 z m -5.54528,-3.14703 c -0.09571,-0.0422 -0.226224,-0.13527 -0.290031,-0.20672 -0.108196,-0.12116 -0.117251,-0.22625 -0.13438,-1.5596 -0.02073,-1.61361 0.0083,-1.80722 0.297057,-1.9833 0.170803,-0.10415 0.300619,-0.11304 1.652901,-0.11324 2.12126,-2.9e-4 1.996827,-0.12818 1.972068,2.02643 -0.0233,2.02778 0.08877,1.91898 -1.973085,1.91551 -0.990276,-0.002 -1.396929,-0.0228 -1.52453,-0.0791 z m 3.072346,-0.0591 c 0.36575,-0.15282 0.386716,-0.26242 0.367305,-1.92005 l -0.01728,-1.47546 -0.160836,-0.16073 -0.160835,-0.16074 h -1.563535 -1.563535 l -0.160835,0.16074 -0.160836,0.16074 -0.01582,1.49244 c -0.01487,1.40276 -0.0089,1.50364 0.0993,1.67873 0.07007,0.11339 0.189764,0.20782 0.305857,0.2413 0.104901,0.0302 0.785408,0.0574 1.512237,0.0602 1.020374,0.004 1.366467,-0.0136 1.518813,-0.0772 z m 14.106223,0.0796 c -0.882706,-0.14811 -1.661436,-0.93344 -1.835451,-1.85102 -0.08309,-0.43811 -0.07876,-9.5582 0.0047,-10.00994 0.167739,-0.90739 0.89199,-1.63232 1.824384,-1.82611 0.194105,-0.0403 1.939378,-0.0554 5.191566,-0.0447 4.857328,0.016 4.901749,0.0172 5.202134,0.14045 0.616742,0.25312 1.122923,0.75233 1.361412,1.34263 l 0.133813,0.33121 v 5.07556 5.07555 l -0.136137,0.33743 c -0.176032,0.43631 -0.699202,0.99973 -1.12972,1.21664 -0.176747,0.089 -0.473241,0.18678 -0.658874,0.21718 -0.410986,0.0673 -9.554331,0.0628 -9.957872,-0.005 z m 9.93744,-0.0589 c 0.97986,-0.15897 1.729373,-0.92512 1.865415,-1.90681 0.03255,-0.23487 0.04785,-2.34855 0.03726,-5.14616 -0.01642,-4.33695 -0.02675,-4.7736 -0.119379,-5.04833 -0.19433,-0.57636 -0.803436,-1.18122 -1.4043,-1.3945 -0.269283,-0.0956 -0.651063,-0.10296 -5.336583,-0.10296 h -5.04655 l -0.348038,0.13972 c -0.480902,0.19304 -1.059395,0.77153 -1.252441,1.25244 l -0.139711,0.34803 v 5.07556 5.07555 l 0.134609,0.33335 c 0.266718,0.66049 1.003883,1.2549 1.699575,1.37045 0.45558,0.0757 9.445848,0.079 9.910147,0.004 z m -36.571041,-1.96159 c -0.127614,-0.0598 -0.315536,-0.19676 -0.417606,-0.30434 -0.372124,-0.39223 -0.365479,-0.3275 -0.365479,-3.55998 0,-3.24191 -0.0096,-3.15142 0.375155,-3.52512 0.3989,-0.3874 0.425125,-0.3903 3.529374,-0.3903 1.943313,0 2.849466,0.0203 3.006436,0.0673 0.30022,0.0899 0.678919,0.42287 0.810482,0.71252 0.09921,0.21843 0.106951,0.44395 0.108134,3.15195 0.0011,2.50763 -0.01136,2.94693 -0.08881,3.13234 -0.114273,0.27356 -0.338886,0.51074 -0.634993,0.67052 -0.227874,0.12296 -0.284433,0.12546 -3.161345,0.13952 -2.759883,0.0135 -2.94274,0.008 -3.161345,-0.0944 z m 6.27303,-0.0777 c 0.25456,-0.13933 0.544692,-0.44181 0.63801,-0.66515 0.06274,-0.15015 0.07872,-0.77817 0.07872,-3.09245 0,-2.48995 -0.0128,-2.93468 -0.08978,-3.11892 -0.114881,-0.27494 -0.286062,-0.4569 -0.577295,-0.61364 -0.228842,-0.12315 -0.272611,-0.12486 -3.190348,-0.12486 -2.917737,0 -2.961506,0.002 -3.190348,0.12486 -0.291233,0.15674 -0.462414,0.3387 -0.577295,0.61364 -0.07699,0.18426 -0.08978,0.62983 -0.08978,3.12774 0,2.83604 0.0032,2.91948 0.121221,3.16328 0.136571,0.28212 0.459459,0.57559 0.719871,0.65429 0.09621,0.0291 1.470817,0.0478 3.074336,0.0418 2.621503,-0.01 2.917847,-0.0204 3.082681,-0.1106 z m 4.558613,-3.81834 c -0.657531,-0.13169 -1.394115,-0.74629 -1.648046,-1.37511 l -0.134609,-0.33335 v -5.07555 c 0,-4.77385 0.0063,-5.09371 0.106443,-5.3809 0.140695,-0.40361 0.542345,-0.92469 0.895908,-1.16231 0.600041,-0.40328 0.340652,-0.38458 5.610371,-0.40429 2.872822,-0.0108 4.899295,0.004 5.117044,0.0383 1.077609,0.16774 1.855213,0.95833 1.992966,2.02625 0.07097,0.55021 0.06517,9.22454 -0.0065,9.72646 -0.112934,0.79084 -0.573665,1.41451 -1.314375,1.77921 l -0.391987,0.193 -4.989819,0.009 c -2.7444,0.005 -5.101224,-0.0134 -5.237385,-0.0407 z m 10.223638,-0.0865 c 0.739146,-0.19252 1.315542,-0.72679 1.557668,-1.44382 0.08708,-0.25787 0.09653,-0.77521 0.09653,-5.28255 0,-5.61699 0.02193,-5.31886 -0.437177,-5.94252 -0.28338,-0.38494 -0.627267,-0.63614 -1.0939,-0.79904 -0.275138,-0.0961 -0.647589,-0.10338 -5.255664,-0.10338 h -4.959541 l -0.381532,0.13191 c -0.442629,0.15304 -0.942439,0.56216 -1.178163,0.96439 -0.328242,0.5601 -0.325511,0.51228 -0.325511,5.69977 0,3.3112 0.01995,4.86451 0.06522,5.07787 0.182318,0.85927 0.913404,1.58994 1.729008,1.72804 0.145748,0.0247 2.419523,0.0479 5.052833,0.0517 4.135801,0.006 4.834465,-0.005 5.130228,-0.0824 z m 20.245227,-3.87781 c -0.267685,-0.11694 -0.542908,-0.37333 -0.684118,-0.63731 -0.127157,-0.23771 -0.127971,-0.25805 -0.127971,-3.19755 0,-2.92036 0.0016,-2.9613 0.125202,-3.19035 0.146501,-0.2715 0.37373,-0.4946 0.657884,-0.64595 0.190378,-0.1014 0.385449,-0.10813 3.132341,-0.10813 h 2.92932 l 0.274176,0.13503 c 0.299356,0.14744 0.540759,0.39866 0.662716,0.68969 0.06217,0.14836 0.07796,0.7851 0.07694,3.10334 -0.0012,2.75655 -0.0074,2.93023 -0.113285,3.16345 -0.128758,0.28367 -0.343734,0.50081 -0.651714,0.6583 -0.20316,0.10388 -0.380212,0.10992 -3.161345,0.10778 -2.298294,-0.002 -2.984398,-0.019 -3.120151,-0.0783 z m 6.194039,-0.0557 c 0.286348,-0.12 0.568921,-0.38519 0.686691,-0.64446 0.09871,-0.21731 0.106578,-0.44643 0.107759,-3.13785 l 0.0013,-2.90343 -0.146937,-0.29487 c -0.09181,-0.18424 -0.236838,-0.35716 -0.386583,-0.46093 l -0.239647,-0.16608 h -3.0888 -3.0888 l -0.24707,0.17402 c -0.135889,0.0957 -0.307806,0.28906 -0.382038,0.42967 l -0.134967,0.25565 v 2.95106 c 0,3.24111 -0.0074,3.16856 0.355622,3.50614 0.409666,0.38098 0.253531,0.36442 3.460157,0.36698 2.320105,0.002 2.95486,-0.0137 3.103339,-0.0759 z m -44.029168,-1.91286 c -0.318861,-0.17709 -0.331747,-0.24378 -0.349391,-1.80834 -0.02411,-2.13811 -0.100029,-2.05899 1.975931,-2.05913 1.530003,-1.2e-4 1.70542,0.0319 1.864988,0.3405 0.07568,0.14635 0.09086,0.42911 0.09086,1.69255 v 1.51685 l -0.197222,0.19722 -0.197222,0.19722 -1.528466,-0.002 c -1.113975,-0.001 -1.563996,-0.0218 -1.659481,-0.0748 z m 3.235514,-0.0687 c 0.09318,-0.0482 0.196295,-0.13783 0.229145,-0.1992 0.03658,-0.0683 0.05973,-0.69722 0.05973,-1.62267 v -1.51106 l -0.169163,-0.18944 -0.169163,-0.18943 -1.41151,-0.0184 c -0.917088,-0.012 -1.487785,0.004 -1.629267,0.0459 -0.39332,0.11613 -0.417778,0.20776 -0.439845,1.64783 -0.02334,1.52337 10e-4,1.73745 0.223062,1.95949 l 0.164588,0.16458 h 1.486505 c 1.212412,0 1.517742,-0.0161 1.655923,-0.0876 z m 18.980882,-3.94773 c -0.345475,-0.17215 -0.61719,-0.45875 -0.79093,-0.83424 -0.120099,-0.25956 -0.122142,-0.3251 -0.122142,-3.91838 v -3.6544 l 0.165399,-0.33683 c 0.193764,-0.39461 0.591265,-0.7398 0.973524,-0.84543 0.188486,-0.0521 1.187551,-0.0656 3.907628,-0.0529 l 3.654399,0.017 0.269416,0.15838 c 0.301616,0.17731 0.515473,0.40876 0.704963,0.76297 l 0.127741,0.23878 v 3.7124 3.71241 l -0.135577,0.26103 c -0.190313,0.36641 -0.454342,0.62947 -0.792524,0.78962 l -0.290032,0.13735 -3.686514,5.8e-4 -3.686514,5.8e-4 z m 7.909756,-0.0197 c 0.312176,-0.14177 0.645831,-0.48095 0.799105,-0.81233 0.120631,-0.26081 0.123461,-0.33794 0.139367,-3.79829 0.01904,-4.14139 0.03722,-3.97921 -0.505794,-4.51028 -0.277124,-0.27103 -0.388838,-0.33922 -0.64774,-0.39535 -0.225221,-0.0488 -1.312165,-0.0627 -3.88025,-0.0495 -3.536141,0.0182 -3.569456,0.0194 -3.803371,0.14462 -0.12979,0.0695 -0.334624,0.2355 -0.455185,0.36895 -0.430416,0.47642 -0.409056,0.26962 -0.427631,4.14007 -0.01125,2.34422 0.0039,3.57423 0.04649,3.77947 0.110473,0.53215 0.551123,1.04239 1.022056,1.18347 0.09145,0.0274 1.810746,0.0515 3.820666,0.0535 3.44516,0.003 3.668019,-0.002 3.892289,-0.10432 z m 3.072614,0.0774 c -0.138004,-0.13801 -0.133914,-1.65735 0.0048,-1.77245 0.07081,-0.0588 0.299967,-0.0796 0.875218,-0.0796 1.018886,0 1.00107,-0.0177 1.00107,0.99253 0,0.97333 0.02409,0.95068 -1.010967,0.95068 -0.630788,0 -0.79628,-0.0173 -0.870095,-0.0911 z m 1.732757,-0.0958 c 0.104978,-0.14987 0.129778,-1.26785 0.03373,-1.52048 l -0.05657,-0.14879 h -0.801923 c -0.546376,0 -0.824104,0.0222 -0.87153,0.0696 -0.04706,0.0471 -0.06961,0.31582 -0.06961,0.82949 0,0.51368 0.02255,0.78244 0.06961,0.8295 0.04713,0.0471 0.317659,0.0696 0.837803,0.0696 0.728073,0 0.772911,-0.007 0.858493,-0.12892 z m -33.071029,-1.78321 c -0.208672,-0.088 -0.250319,-0.25063 -0.250319,-0.97781 0,-0.98304 -0.01646,-0.96735 1.014662,-0.96735 1.002483,0 0.957554,-0.0463 0.957554,0.98611 0,1.01975 0.03282,0.98247 -0.8798,0.99928 -0.393456,0.007 -0.772399,-0.0108 -0.842097,-0.0402 z m 1.594283,-0.12956 c 0.04715,-0.0472 0.06961,-0.31809 0.06961,-0.83975 0,-0.98478 0.02049,-0.9652 -0.980694,-0.93726 -0.470227,0.0131 -0.72042,0.0438 -0.771258,0.0947 -0.09674,0.0967 -0.138204,1.36658 -0.052,1.59243 l 0.06089,0.15952 h 0.801923 c 0.546376,0 0.824105,-0.0222 0.871531,-0.0696 z m 30.328911,-1.87114 c -0.122664,-0.0437 -0.288286,-0.14047 -0.368052,-0.21497 -0.308693,-0.28833 -0.308023,-0.28256 -0.308023,-2.65772 0,-2.4599 0.002,-2.47412 0.380792,-2.76317 l 0.219083,-0.16717 2.179833,-0.0174 c 1.198908,-0.01 2.263899,-0.002 2.366646,0.0168 0.224808,0.0412 0.505903,0.2667 0.641861,0.51504 0.08897,0.1625 0.09943,0.41347 0.09943,2.38585 0,1.97237 -0.01046,2.22334 -0.09943,2.38585 -0.134924,0.24645 -0.410438,0.46856 -0.670958,0.54092 -0.344739,0.0957 -4.163196,0.0751 -4.441182,-0.0241 z m 4.66031,-0.12154 c 0.111554,-0.0655 0.261645,-0.20644 0.333536,-0.31312 0.130006,-0.19291 0.130712,-0.20605 0.130712,-2.43403 0,-2.5271 0.0011,-2.52038 -0.441086,-2.77387 -0.22287,-0.12777 -0.256322,-0.12957 -2.425131,-0.13051 l -2.199144,-9.6e-4 -0.244076,0.14304 c -0.433681,0.25416 -0.43319,0.25107 -0.43319,2.72828 0,1.89739 0.01246,2.21296 0.09416,2.38514 0.107926,0.22743 0.359124,0.42522 0.623069,0.49057 0.100028,0.0248 1.121571,0.0404 2.270096,0.0348 1.992137,-0.01 2.097561,-0.0157 2.291053,-0.12936 z m 2.963953,0.13037 c -0.108674,-0.0381 -0.252239,-0.14286 -0.319035,-0.23285 -0.114043,-0.15365 -0.122567,-0.2491 -0.139839,-1.56617 -0.02078,-1.58474 0.0089,-1.78048 0.297083,-1.95617 0.171318,-0.10446 0.301156,-0.11304 1.713828,-0.11324 l 1.528467,-2.2e-4 0.197221,0.19723 0.197222,0.19722 v 1.53514 c 0,2.11356 0.09423,2.01665 -1.955851,2.01157 -0.866681,-0.002 -1.389511,-0.0271 -1.519096,-0.0725 z m 2.958696,-0.0409 c 0.43189,-0.11997 0.429241,-0.10827 0.429241,-1.89567 v -1.5941 l -0.162751,-0.14 -0.162753,-0.13999 h -1.533018 -1.533018 l -0.189435,0.16917 -0.189436,0.16916 -0.01816,1.45304 c -0.02647,2.11753 -0.107509,2.0296 1.874364,2.03374 0.701877,0.001 1.370112,-0.0234 1.484968,-0.0554 z m -46.343373,-1.94655 c -0.977398,-0.21689 -1.786014,-0.95107 -2.135819,-1.93922 l -0.133472,-0.37704 -0.0012,-6.4181 c -0.0012,-6.364 -1.94e-4,-6.42142 0.12096,-6.81367 0.335455,-1.08608 1.293884,-1.91521 2.372089,-2.0521 0.250253,-0.0318 2.997527,-0.0556 6.467706,-0.0562 6.578188,-0.001 6.390578,-0.01 7.095464,0.33123 0.433666,0.20979 1.103389,0.87191 1.306154,1.29131 0.33058,0.68378 0.32632,0.58915 0.32632,7.24978 0,6.68248 0.0059,6.55427 -0.335332,7.22887 -0.348149,0.68817 -0.9821,1.22786 -1.746697,1.48697 l -0.381225,0.1292 -6.293687,0.0103 c -5.222732,0.008 -6.356231,-0.004 -6.661237,-0.0713 z m 13.340356,-0.13895 c 0.978802,-0.3025 1.713144,-1.12915 1.934187,-2.17731 0.07233,-0.34297 0.08572,-1.3432 0.0862,-6.43871 3.48e-4,-3.79199 -0.02127,-6.1727 -0.05823,-6.4097 -0.132292,-0.84836 -0.748582,-1.70033 -1.502492,-2.07707 -0.751247,-0.3754 -0.540111,-0.36554 -7.428818,-0.3469 -6.20123,0.0168 -6.237683,0.0175 -6.598112,0.14119 -0.919615,0.31544 -1.612947,1.04372 -1.893346,1.98878 -0.08348,0.28137 -0.09348,0.99509 -0.09348,6.6747 0,6.94658 -0.01636,6.58827 0.332244,7.27667 0.181618,0.35864 0.701292,0.90901 1.052858,1.11504 0.650218,0.38106 0.238807,0.36068 7.353242,0.36413 6.248779,0.003 6.458434,-4.1e-4 6.815744,-0.11082 z m 4.487099,0.1432 c -0.127614,-0.047 -0.23788,-0.0859 -0.245037,-0.0864 -0.0072,-4.6e-4 -0.05284,-0.0779 -0.101511,-0.17201 -0.07271,-0.1406 -0.0885,-0.44178 -0.0885,-1.68798 v -1.51685 l 0.197221,-0.19722 0.197222,-0.19722 h 1.548769 1.548769 l 0.191623,0.19162 c 0.249703,0.2497 0.278921,0.48786 0.251532,2.05028 -0.03053,1.74163 0.055,1.66589 -1.904914,1.68678 -1.08535,0.0116 -1.410434,-0.003 -1.595175,-0.071 z m 3.223814,-0.19882 0.169557,-0.16956 v -1.53839 -1.5384 l -0.139994,-0.16275 -0.139993,-0.16275 h -1.605219 -1.605219 l -0.139993,0.16275 -0.139994,0.16275 v 1.5384 1.53839 l 0.169557,0.16956 0.169557,0.16956 h 1.546092 1.546092 z m 21.984147,-3.8117 c -0.106634,-0.13556 -0.120223,-0.23245 -0.120223,-0.85719 0,-0.99382 -0.03223,-0.96219 0.980407,-0.96219 1.038447,0 0.991809,-0.0471 0.991809,1.00189 0,1.00468 0.03522,0.97033 -0.994805,0.97033 -0.727065,0 -0.73858,-0.002 -0.857188,-0.15284 z m 1.702833,0.004 c 0.07368,-0.0737 0.09115,-0.23825 0.09115,-0.85849 0,-0.51948 -0.02248,-0.78983 -0.06961,-0.83695 -0.04713,-0.0471 -0.31766,-0.0696 -0.837803,-0.0696 -0.973669,0 -0.948792,-0.0247 -0.948792,0.94101 0,0.92527 -0.01049,0.91519 0.952961,0.91519 0.578054,0 0.739001,-0.0181 0.812088,-0.0911 z m -26.467795,-1.90248 c -0.276311,-0.1 -0.62786,-0.41166 -0.762894,-0.67635 -0.110416,-0.21643 -0.115152,-0.34757 -0.115152,-3.18866 0,-2.7962 0.0062,-2.9751 0.110181,-3.17892 0.147784,-0.28968 0.391451,-0.52741 0.672904,-0.65652 0.214932,-0.0986 0.441425,-0.10651 3.074336,-0.10739 1.82879,-6.1e-4 2.92134,0.021 3.06394,0.0606 0.283142,0.0786 0.665384,0.42252 0.801273,0.7209 0.09777,0.21466 0.105673,0.45115 0.105673,3.16134 0,2.72187 -0.0076,2.94598 -0.10686,3.16458 -0.131563,0.28966 -0.510262,0.62258 -0.810482,0.71253 -0.323806,0.097 -5.761539,0.0861 -6.032919,-0.0121 z m 6.272533,-0.17031 c 0.152256,-0.0895 0.348027,-0.27029 0.435047,-0.40175 l 0.158219,-0.23902 0.01764,-2.93362 c 0.01231,-2.04713 -0.002,-3.00101 -0.04748,-3.15664 -0.08565,-0.29334 -0.485603,-0.68811 -0.788973,-0.77875 -0.310242,-0.0927 -5.682985,-0.1015 -6.013013,-0.01 -0.285142,0.0792 -0.612975,0.37065 -0.745827,0.66309 -0.09763,0.21491 -0.105729,0.45346 -0.106907,3.1492 -0.0011,2.50336 0.01145,2.94713 0.0885,3.13155 0.124883,0.29889 0.29725,0.47001 0.635301,0.63071 l 0.290032,0.13788 2.900317,-0.015 2.900316,-0.015 z m 2.768503,0.13372 c -0.103906,-0.10391 -0.116012,-0.19335 -0.116012,-0.85719 0,-1.03607 -0.03637,-0.99901 0.980407,-0.99901 1.035758,0 0.991808,-0.0433 0.991808,0.97617 0,1.02252 0.02621,0.99604 -0.986108,0.99604 -0.67674,0 -0.765981,-0.0119 -0.870095,-0.11601 z m 1.692118,-0.038 c 0.09191,-0.0832 0.106079,-0.19214 0.106079,-0.81591 0,-0.39594 -0.02702,-0.77039 -0.06005,-0.8321 -0.05478,-0.10235 -0.128216,-0.1122 -0.836949,-0.1122 -0.628932,0 -0.794262,0.0174 -0.868054,0.0912 -0.07342,0.0734 -0.09115,0.23637 -0.09115,0.8378 0,0.95002 -0.02335,0.92725 0.950943,0.92725 0.563537,0 0.712932,-0.0179 0.799181,-0.096 z m -1.473865,-3.88123 c -0.312747,-0.1697 -0.334265,-0.29081 -0.334265,-1.88141 0,-1.62199 0.01742,-1.71067 0.368751,-1.87739 0.275758,-0.13085 2.88888,-0.14098 3.196649,-0.0124 0.356692,0.14904 0.37903,0.26041 0.37903,1.88978 0,1.60127 -0.0211,1.71614 -0.346139,1.88422 -0.247188,0.12783 -3.027675,0.12543 -3.264026,-0.003 z m 3.33372,-0.13647 0.189436,-0.16926 v -1.56961 -1.56961 l -0.160836,-0.16083 -0.160835,-0.16084 H 71.52161 69.958076 l -0.160836,0.16084 -0.160836,0.16083 v 1.56961 1.56961 l 0.189436,0.16926 0.189436,0.16927 h 1.506334 1.506335 z m 2.34466,-1.85102 c -0.07943,-0.0878 -0.096,-0.24236 -0.096,-0.89581 0,-1.00393 -0.03421,-0.97033 0.987927,-0.97033 0.99138,0 0.950352,-0.0399 0.974199,0.94789 0.0254,1.05231 0.05261,1.02433 -0.996032,1.02433 -0.676263,0 -0.786228,-0.0134 -0.870095,-0.10608 z m 1.727911,-0.0808 c 0.06908,-0.0986 0.0903,-0.28642 0.0903,-0.79918 0,-0.94815 0.02003,-0.9281 -0.927247,-0.9281 -0.601431,0 -0.764378,0.0177 -0.837802,0.0911 -0.07368,0.0737 -0.09115,0.23825 -0.09115,0.85849 0,0.51948 0.02248,0.78983 0.06961,0.83695 0.04713,0.0471 0.31766,0.0696 0.837803,0.0696 0.728074,0 0.772911,-0.007 0.858494,-0.12892 z m -17.24721,-3.83845 c -0.276979,-0.15352 -0.292165,-0.25045 -0.29436,-1.87881 -0.0018,-1.3411 0.0099,-1.54288 0.09681,-1.6756 0.182932,-0.27919 0.361296,-0.30908 1.844346,-0.30908 2.074585,0 1.972215,-0.10073 1.972215,1.94062 0,1.59356 -0.0293,1.76698 -0.324324,1.91954 -0.226524,0.11714 -3.084137,0.12003 -3.294687,0.003 z m 3.362445,-0.14662 0.169557,-0.16955 v -1.54072 -1.54071 l -0.169261,-0.18944 -0.169261,-0.18944 h -1.546684 -1.546684 l -0.169261,0.18944 -0.169261,0.18944 v 1.54071 1.54072 l 0.169557,0.16955 0.169557,0.16956 h 1.546092 1.546092 z m 2.290077,0.0987 c -0.06987,-0.0998 -0.0903,-0.29066 -0.0903,-0.84373 0,-0.68159 0.0066,-0.72143 0.14238,-0.85719 0.135762,-0.13576 0.175597,-0.14238 0.857188,-0.14238 1.006391,0 0.972648,-0.0342 0.972648,0.98525 0,0.65417 -0.01705,0.82171 -0.09115,0.89581 -0.07411,0.0741 -0.241645,0.0912 -0.895809,0.0912 -0.765752,0 -0.809022,-0.006 -0.894955,-0.12892 z m 1.754303,0.001 c 0.04713,-0.0471 0.06961,-0.31766 0.06961,-0.8378 0,-0.97367 0.02467,-0.94879 -0.941008,-0.94879 -0.922445,0 -0.915194,-0.007 -0.915194,0.93191 0,0.38494 0.02702,0.75038 0.06005,0.81209 0.0549,0.10259 0.12846,0.1122 0.858493,0.1122 0.543673,0 0.820658,-0.0222 0.868055,-0.0696 z m 2.630543,0.0302 c -0.106901,-0.0532 -0.263518,-0.20125 -0.348038,-0.32891 l -0.153673,-0.23212 -0.01669,-2.17957 c -0.01879,-2.45277 -0.0074,-2.53769 0.379825,-2.83314 l 0.207758,-0.15852 2.328005,-0.0164 2.328005,-0.0164 0.199857,0.13284 c 0.109921,0.0731 0.258588,0.2491 0.330371,0.39119 0.128426,0.25421 0.130494,0.29274 0.129241,2.40679 -0.0014,2.40358 -0.01253,2.47798 -0.412513,2.76325 l -0.19528,0.13928 -2.29125,0.0142 c -2.041628,0.0127 -2.312425,0.004 -2.485615,-0.0826 z m 4.864464,-0.0911 c 0.105471,-0.0718 0.246371,-0.20416 0.313112,-0.29418 0.117177,-0.15806 0.121972,-0.23777 0.139584,-2.32026 0.01198,-1.41705 -0.0031,-2.22898 -0.04393,-2.36773 -0.03507,-0.11913 -0.163168,-0.30241 -0.293935,-0.42055 l -0.231772,-0.20939 h -2.282505 c -2.271552,0 -2.283425,6.3e-4 -2.47427,0.13052 -0.105471,0.0718 -0.246371,0.20421 -0.313111,0.29428 -0.118294,0.15965 -0.121347,0.22119 -0.121347,2.44652 0,2.22532 0.0031,2.28686 0.121347,2.44651 0.06674,0.0901 0.20764,0.2225 0.313111,0.29428 0.190711,0.1298 0.204104,0.13052 2.436856,0.13052 2.232751,0 2.246144,-7.2e-4 2.436855,-0.13052 z"
       id="path312"
       sodipodi:nodetypes="ssscsssscsssscscssssscsscscscsssssssssscsssscccccccssccsscsccscscccscscccssssscsscccssccssssssssssssssssssscsssscsssscscsccsssccsssssscscsssssssssssssscssssscssssscsscccsscsscsscssssccccccssscccccsscsssssscssccsscccsscccsssssssssscscssssssssssscscssssssssscssssscscssscssscccssscccssssscsssscssssssscccscsscscccccccscccsscsssccsscsccsssssssscsssssssscsscccccssssscccccccccccccccccssssssssssssssssssssssssssscscscscssssccccssssssssssssssscssssscccccccccccccccccccssssssscsssssscccscssscccccccccccccccccccssssssssssssssssscscssccccsssccccssssscsssssssss"
       inkscape:export-filename="path312.svg"
       inkscape:export-xdpi="96"
       inkscape:export-ydpi="96" /><path
       style="fill:#a51122;stroke-width:0.0580063"
       d="m 56.004917,209.50529 c -0.01972,-0.0319 -0.02259,-0.058 -0.0064,-0.058 0.01621,0 -0.0084,-0.0905 -0.05458,-0.20116 -0.06964,-0.16667 -0.08383,-0.69631 -0.08277,-3.08884 0.0012,-2.68696 0.0087,-2.9038 0.108698,-3.1197 0.05908,-0.12762 0.182499,-0.30243 0.274256,-0.38847 0.361549,-0.33903 0.336511,-0.33661 3.488944,-0.33661 h 2.89079 l 0.294863,0.14694 c 0.184247,0.0918 0.357165,0.23683 0.460938,0.38658 l 0.166076,0.23965 v 3.07929 c 0,2.3048 -0.01788,3.11942 -0.07107,3.23881 l -0.07107,0.15952 h -3.681414 c -2.391705,0 -3.693974,-0.0203 -3.717264,-0.058 z m 9.658054,-0.51791 c 0,-0.77607 -0.02245,-0.75822 0.954145,-0.75822 0.547027,0 0.789192,0.0211 0.831415,0.0725 0.03277,0.0399 0.06859,0.34009 0.07961,0.66713 l 0.02003,0.59462 -0.942602,-5e-5 -0.942603,-6e-5 z m -15.301379,-2.91192 c -0.116093,-0.0335 -0.235782,-0.12791 -0.305857,-0.2413 -0.108208,-0.17509 -0.114175,-0.27597 -0.0993,-1.67873 l 0.01582,-1.49244 0.160836,-0.16074 0.160835,-0.16074 h 1.563535 1.563535 l 0.160835,0.16074 0.160836,0.16073 0.01728,1.47546 c 0.01484,1.26747 0.0041,1.50098 -0.07636,1.65653 -0.162386,0.31402 -0.335229,0.34656 -1.809757,0.34073 -0.726829,-0.003 -1.407336,-0.03 -1.512237,-0.0602 z m 17.164566,6e-5 c -0.695692,-0.11554 -1.432857,-0.70995 -1.699575,-1.37044 l -0.134609,-0.33335 v -5.07555 -5.07556 l 0.139711,-0.34803 c 0.193046,-0.48091 0.771539,-1.0594 1.252441,-1.25244 l 0.348038,-0.13972 h 5.04655 c 4.68552,0 5.0673,0.007 5.336583,0.10296 0.600864,0.21328 1.20997,0.81814 1.4043,1.3945 0.09263,0.27473 0.102956,0.71138 0.119379,5.04833 0.01059,2.79761 -0.0047,4.91129 -0.03726,5.14616 -0.136042,0.98169 -0.885555,1.74784 -1.865415,1.90681 -0.464299,0.0753 -9.454567,0.072 -9.910147,-0.004 z m -26.544881,-1.96684 c -0.260412,-0.0787 -0.5833,-0.37217 -0.719871,-0.65429 -0.118023,-0.2438 -0.121221,-0.32724 -0.121221,-3.16328 0,-2.49791 0.01279,-2.94348 0.08978,-3.12774 0.114881,-0.27494 0.286062,-0.4569 0.577295,-0.61364 0.228842,-0.12315 0.272611,-0.12486 3.190348,-0.12486 2.917737,0 2.961506,0.002 3.190348,0.12486 0.291233,0.15674 0.462414,0.3387 0.577295,0.61364 0.07698,0.18424 0.08978,0.62897 0.08978,3.11892 0,3.17712 0.0059,3.11747 -0.345907,3.46932 -0.405734,0.40574 -0.243043,0.38695 -3.453507,0.39888 -1.603519,0.006 -2.978125,-0.0127 -3.074336,-0.0418 z m 10.756207,-3.94291 c -0.815604,-0.1381 -1.54669,-0.86877 -1.729008,-1.72804 -0.04527,-0.21336 -0.06522,-1.76667 -0.06522,-5.07787 0,-5.18749 -0.0027,-5.13967 0.325511,-5.69977 0.235724,-0.40223 0.735534,-0.81135 1.178163,-0.96439 l 0.381532,-0.13191 h 4.959541 c 4.608075,0 4.980526,0.007 5.255664,0.10338 0.466633,0.1629 0.81052,0.4141 1.0939,0.79904 0.45911,0.62366 0.437177,0.32553 0.437177,5.94252 0,4.50734 -0.0095,5.02468 -0.09653,5.28255 -0.242126,0.71703 -0.818522,1.2513 -1.557668,1.44382 -0.295763,0.077 -0.994427,0.0883 -5.130228,0.0824 -2.63331,-0.004 -4.907085,-0.027 -5.052833,-0.0517 z m 30.428288,-3.98202 c -0.258391,-0.13579 -0.554211,-0.43006 -0.644987,-0.64162 -0.06462,-0.15061 -0.08009,-0.75661 -0.08009,-3.13772 v -2.95106 l 0.134967,-0.25565 c 0.07423,-0.14061 0.246149,-0.33396 0.382038,-0.42967 l 0.24707,-0.17402 h 3.0888 3.0888 l 0.239647,0.16608 c 0.149745,0.10377 0.294769,0.27669 0.386583,0.46093 l 0.146937,0.29487 -0.0013,2.90343 c -0.0014,3.242 0.0049,3.1875 -0.411017,3.53818 -0.389117,0.32808 -0.328767,0.32254 -3.486771,0.32003 -2.540288,-0.002 -2.939139,-0.0141 -3.090701,-0.0938 z m -37.906631,-2.0407 c -0.222035,-0.22204 -0.246406,-0.43612 -0.223062,-1.95949 0.02207,-1.44007 0.04653,-1.5317 0.439845,-1.64783 0.141482,-0.0418 0.712179,-0.0579 1.629267,-0.0459 l 1.41151,0.0184 0.169163,0.18943 0.169163,0.18944 v 1.51106 c 0,0.92545 -0.02315,1.55432 -0.05973,1.62267 -0.139734,0.26109 -0.308805,0.28681 -1.885068,0.28681 h -1.486505 z m 22.484699,-3.83963 c -0.470933,-0.14108 -0.911583,-0.65132 -1.022056,-1.18347 -0.04261,-0.20524 -0.05774,-1.43525 -0.04649,-3.77947 0.01857,-3.87045 -0.0028,-3.66365 0.427631,-4.14007 0.120561,-0.13345 0.325395,-0.29948 0.455185,-0.36895 0.233915,-0.12521 0.26723,-0.12647 3.803371,-0.14462 2.568085,-0.0132 3.655029,7e-4 3.88025,0.0495 0.258902,0.0561 0.370616,0.12432 0.64774,0.39535 0.543018,0.53107 0.524831,0.36889 0.505794,4.51028 -0.01591,3.46035 -0.01874,3.53748 -0.139367,3.79829 -0.153274,0.33138 -0.486929,0.67056 -0.799105,0.81233 -0.22427,0.10185 -0.447129,0.10782 -3.892289,0.10432 -2.00992,-0.002 -3.729219,-0.0261 -3.820666,-0.0535 z m 10.82203,-0.01 c -0.04706,-0.0471 -0.06961,-0.31582 -0.06961,-0.8295 0,-0.51367 0.02255,-0.78243 0.06961,-0.82949 0.04743,-0.0474 0.325154,-0.0696 0.87153,-0.0696 h 0.801923 l 0.05657,0.14879 c 0.03111,0.0818 0.05657,0.42841 0.05657,0.77018 0,0.89492 0.01694,0.87922 -0.948792,0.87922 -0.520144,0 -0.790672,-0.0225 -0.837803,-0.0696 z m -31.514792,-2.06213 c -0.08621,-0.22585 -0.04474,-1.49569 0.052,-1.59243 0.05084,-0.0508 0.301031,-0.0815 0.771258,-0.0947 1.001181,-0.0279 0.980694,-0.0475 0.980694,0.93726 0,0.52166 -0.02246,0.7926 -0.06961,0.83975 -0.04743,0.0474 -0.325155,0.0696 -0.871531,0.0696 h -0.801923 z m 32.162414,-1.8083 c -0.263945,-0.0653 -0.515143,-0.26314 -0.623069,-0.49057 -0.0817,-0.17218 -0.09416,-0.48775 -0.09416,-2.38514 0,-2.47721 -4.64e-4,-2.47412 0.43319,-2.72828 l 0.244076,-0.14304 2.199144,9.6e-4 c 2.168809,9.4e-4 2.202261,0.003 2.425131,0.13052 0.442154,0.25349 0.441086,0.24677 0.441086,2.77386 0,2.22799 -7.08e-4,2.24112 -0.130712,2.43404 -0.07189,0.10668 -0.221982,0.24758 -0.333536,0.31311 -0.193492,0.11367 -0.298916,0.11962 -2.291053,0.12936 -1.148525,0.006 -2.170068,-0.01 -2.270096,-0.0348 z m 7.509688,-0.0408 c -0.381666,-0.15844 -0.40599,-0.28111 -0.385222,-1.94265 l 0.01816,-1.45304 0.189436,-0.16916 0.189435,-0.16917 h 1.533018 1.533018 l 0.162753,0.13999 0.162751,0.14 v 1.5941 c 0,1.48471 -0.0076,1.60247 -0.110206,1.71589 -0.181652,0.20072 -0.467047,0.23792 -1.804003,0.23513 -1.006914,-0.002 -1.321076,-0.0213 -1.489142,-0.0911 z M 42.111751,184.3378 c -0.897455,-0.28728 -1.594786,-1.02084 -1.878087,-1.97569 -0.08348,-0.28137 -0.09348,-0.99509 -0.09348,-6.6747 0,-5.67961 0.01,-6.39333 0.09348,-6.6747 0.140516,-0.4736 0.332234,-0.81483 0.658191,-1.17148 0.356293,-0.38984 0.751674,-0.65146 1.235155,-0.8173 0.360429,-0.12364 0.396882,-0.12442 6.598112,-0.14119 6.888707,-0.0186 6.677571,-0.0285 7.428818,0.3469 0.75391,0.37674 1.3702,1.22871 1.502492,2.07707 0.03696,0.237 0.05858,2.61771 0.05823,6.4097 -4.64e-4,5.09551 -0.01387,6.09574 -0.0862,6.43871 -0.221043,1.04816 -0.955385,1.87481 -1.934187,2.17731 -0.35731,0.11043 -0.566965,0.11384 -6.815744,0.11082 -5.995153,-0.003 -6.469504,-0.0103 -6.766778,-0.10545 z m 17.862137,-0.061 -0.169557,-0.16956 v -1.53839 -1.5384 l 0.139994,-0.16275 0.139993,-0.16275 h 1.605219 1.605219 l 0.139993,0.16275 0.139994,0.16275 v 1.5384 1.53839 l -0.169557,0.16956 -0.169557,0.16956 h -1.546092 -1.546092 z m 25.469241,-3.83288 c -0.102878,-0.10288 -0.116012,-0.19336 -0.116012,-0.79918 0,-0.96568 -0.02488,-0.94101 0.948792,-0.94101 0.520143,0 0.790671,0.0225 0.837803,0.0696 0.04712,0.0471 0.06961,0.31747 0.06961,0.83695 0,0.62024 -0.01747,0.78481 -0.09115,0.85849 -0.07309,0.0731 -0.234034,0.0911 -0.812088,0.0911 -0.643594,0 -0.733382,-0.0124 -0.836949,-0.11601 z M 60.52941,178.45091 c -0.338051,-0.1607 -0.510418,-0.33182 -0.635301,-0.63071 -0.07706,-0.18442 -0.0896,-0.62819 -0.0885,-3.13155 0.0012,-2.69574 0.0093,-2.93429 0.106907,-3.1492 0.132852,-0.29244 0.460685,-0.5839 0.745827,-0.66309 0.330028,-0.0917 5.702771,-0.0829 6.013013,0.01 0.30337,0.0906 0.703326,0.48541 0.788973,0.77875 0.04544,0.15563 0.05979,1.10951 0.04748,3.15664 l -0.01764,2.93362 -0.158219,0.23902 c -0.08702,0.13146 -0.282791,0.31225 -0.435047,0.40175 l -0.276829,0.16272 -2.900316,0.015 -2.900317,0.015 z m 9.206911,0.0465 c -0.121868,-0.0854 -0.12892,-0.13114 -0.12892,-0.83695 0,-0.60143 0.01773,-0.76438 0.09115,-0.8378 0.07379,-0.0738 0.239122,-0.0912 0.868054,-0.0912 0.708733,0 0.78217,0.01 0.836949,0.1122 0.03303,0.0617 0.06005,0.43616 0.06005,0.8321 0,0.93586 0.02378,0.91191 -0.90526,0.91191 -0.533432,0 -0.722803,-0.0208 -0.822023,-0.0903 z m 0.08952,-4.0234 -0.189436,-0.16926 v -1.56961 -1.56961 l 0.160836,-0.16083 0.160836,-0.16084 h 1.563534 1.563535 l 0.160835,0.16084 0.160836,0.16083 v 1.56961 1.56961 l -0.189436,0.16926 -0.189435,0.16927 h -1.506335 -1.506334 z m 5.767814,-1.87256 c -0.04712,-0.0471 -0.06961,-0.31747 -0.06961,-0.83695 0,-0.62024 0.01747,-0.78481 0.09115,-0.85849 0.07342,-0.0734 0.236371,-0.0911 0.837802,-0.0911 0.947277,0 0.927247,-0.02 0.927247,0.9281 0,0.95089 0.0233,0.9281 -0.948792,0.9281 -0.520143,0 -0.790671,-0.0225 -0.837803,-0.0696 z m -15.619766,-4.04438 -0.169557,-0.16955 v -1.54072 -1.54071 l 0.169261,-0.18944 0.169261,-0.18944 h 1.546684 1.546684 l 0.169261,0.18944 0.169261,0.18944 v 1.54071 1.54072 l -0.169557,0.16955 -0.169557,0.16956 h -1.546093 -1.546092 z m 5.74913,0.0574 c -0.03303,-0.0617 -0.06005,-0.42715 -0.06005,-0.81209 0,-0.9393 -0.0073,-0.93191 0.915194,-0.93191 0.965681,0 0.941008,-0.0249 0.941008,0.94879 0,0.52014 -0.02248,0.79067 -0.06961,0.8378 -0.0474,0.0474 -0.324382,0.0696 -0.868055,0.0696 -0.730033,0 -0.803591,-0.01 -0.858493,-0.1122 z m 4.347844,-0.0183 c -0.105471,-0.0718 -0.246371,-0.20421 -0.313111,-0.29428 -0.118294,-0.15965 -0.121347,-0.22119 -0.121347,-2.44651 0,-2.22533 0.0031,-2.28687 0.121347,-2.44652 0.06674,-0.0901 0.20764,-0.2225 0.313111,-0.29428 0.190845,-0.12989 0.202718,-0.13052 2.47427,-0.13052 h 2.282505 l 0.231772,0.20939 c 0.130767,0.11814 0.258863,0.30142 0.293935,0.42055 0.04085,0.13875 0.05591,0.95068 0.04393,2.36773 -0.01761,2.08249 -0.02241,2.1622 -0.139584,2.32026 -0.06674,0.09 -0.207641,0.2224 -0.313112,0.29418 -0.190711,0.1298 -0.204104,0.13052 -2.436855,0.13052 -2.232752,0 -2.246145,-7.2e-4 -2.436856,-0.13052 z"
       id="path304"
       sodipodi:nodetypes="sscsssscsscsscssssssscccsssscccccccsscsscscccsscscsscsccsssssscssssssssssscscsscscsscsscsscccssccssccsssccccssscsssssssssssscsssssscssssssscssscssssscscssscsssscccccccsccsssssssssssssscssccccccccccccccccccsssssscccsssccsscsscccccssssssccccccccccccccccccccssssscccccccccccccccccccsssssssssssssscssssssss" /></g></svg>
